<?xml version="1.0" encoding="UTF-8"?> <svg xmlns="http://www.w3.org/2000/svg" width="136" height="38" viewBox="0 0 136 38" fill="none"><path d="M4.768 7.688C5.00267 7.688 5.2 7.69867 5.36 7.72C5.52 7.74133 5.664 7.784 5.792 7.848C5.92 7.90133 6.04267 7.98133 6.16 8.088C6.27733 8.19467 6.41067 8.33867 6.56 8.52L17.632 22.52C17.5893 22.072 17.5573 21.64 17.536 21.224C17.5147 20.7973 17.504 20.3973 17.504 20.024V7.688H22.272V31H19.456C19.04 31 18.688 30.936 18.4 30.808C18.112 30.68 17.8347 30.4453 17.568 30.104L6.576 16.216C6.608 16.6213 6.63467 17.0213 6.656 17.416C6.67733 17.8 6.688 18.1627 6.688 18.504V31H1.92V7.688H4.768ZM31.3875 14.408V24.936C31.3875 25.7573 31.5742 26.392 31.9475 26.84C32.3208 27.288 32.8702 27.512 33.5955 27.512C34.1395 27.512 34.6462 27.4 35.1155 27.176C35.5955 26.952 36.0595 26.6373 36.5075 26.232V14.408H41.4675V31H38.3955C37.7768 31 37.3715 30.7227 37.1795 30.168L36.8755 29.208C36.5555 29.5173 36.2248 29.8 35.8835 30.056C35.5422 30.3013 35.1742 30.5147 34.7795 30.696C34.3955 30.8667 33.9795 31 33.5315 31.096C33.0835 31.2027 32.5928 31.256 32.0595 31.256C31.1528 31.256 30.3475 31.1013 29.6435 30.792C28.9502 30.472 28.3635 30.0293 27.8835 29.464C27.4035 28.8987 27.0408 28.232 26.7955 27.464C26.5502 26.696 26.4275 25.8533 26.4275 24.936V14.408H31.3875ZM51.774 31.256C50.9847 31.256 50.286 31.144 49.678 30.92C49.0807 30.6853 48.574 30.36 48.158 29.944C47.7527 29.5173 47.4433 29.0053 47.23 28.408C47.0167 27.8107 46.91 27.144 46.91 26.408V17.832H45.502C45.246 17.832 45.0273 17.752 44.846 17.592C44.6647 17.4213 44.574 17.176 44.574 16.856V14.92L47.214 14.408L48.19 10.36C48.318 9.848 48.6807 9.592 49.278 9.592H51.87V14.44H55.902V17.832H51.87V26.072C51.87 26.456 51.9607 26.776 52.142 27.032C52.334 27.2773 52.606 27.4 52.958 27.4C53.1393 27.4 53.2887 27.384 53.406 27.352C53.534 27.3093 53.6407 27.2667 53.726 27.224C53.822 27.1707 53.9073 27.128 53.982 27.096C54.0673 27.0533 54.1633 27.032 54.27 27.032C54.4193 27.032 54.5367 27.0693 54.622 27.144C54.718 27.208 54.814 27.3147 54.91 27.464L56.414 29.816C55.774 30.296 55.054 30.6587 54.254 30.904C53.454 31.1387 52.6273 31.256 51.774 31.256ZM59.4025 31V14.408H62.3465C62.5918 14.408 62.7945 14.4293 62.9545 14.472C63.1252 14.5147 63.2638 14.584 63.3705 14.68C63.4878 14.7653 63.5732 14.8827 63.6265 15.032C63.6905 15.1813 63.7438 15.3627 63.7865 15.576L64.0585 17.128C64.6665 16.1893 65.3492 15.448 66.1065 14.904C66.8638 14.36 67.6905 14.088 68.5865 14.088C69.3438 14.088 69.9518 14.2693 70.4105 14.632L69.7705 18.28C69.7278 18.504 69.6425 18.664 69.5145 18.76C69.3865 18.8453 69.2158 18.888 69.0025 18.888C68.8212 18.888 68.6078 18.8667 68.3625 18.824C68.1172 18.7707 67.8078 18.744 67.4345 18.744C66.1332 18.744 65.1092 19.4373 64.3625 20.824V31H59.4025ZM78.3812 14.408V31H73.4212V14.408H78.3812ZM78.9572 9.864C78.9572 10.2587 78.8772 10.632 78.7172 10.984C78.5572 11.3253 78.3386 11.6293 78.0612 11.896C77.7839 12.152 77.4586 12.36 77.0852 12.52C76.7226 12.6693 76.3332 12.744 75.9172 12.744C75.5119 12.744 75.1332 12.6693 74.7812 12.52C74.4292 12.36 74.1146 12.152 73.8372 11.896C73.5706 11.6293 73.3572 11.3253 73.1972 10.984C73.0479 10.632 72.9732 10.2587 72.9732 9.864C72.9732 9.45867 73.0479 9.08 73.1972 8.728C73.3572 8.376 73.5706 8.06667 73.8372 7.8C74.1146 7.53333 74.4292 7.32533 74.7812 7.176C75.1332 7.02667 75.5119 6.952 75.9172 6.952C76.3332 6.952 76.7226 7.02667 77.0852 7.176C77.4586 7.32533 77.7839 7.53333 78.0612 7.8C78.3386 8.06667 78.5572 8.376 78.7172 8.728C78.8772 9.08 78.9572 9.45867 78.9572 9.864ZM94.0022 27.096C94.7489 27.096 95.4102 27.032 95.9862 26.904C96.5622 26.776 97.1062 26.6053 97.6182 26.392V22.856H95.3142C94.9729 22.856 94.7062 22.7653 94.5142 22.584C94.3222 22.4027 94.2262 22.1733 94.2262 21.896V18.92H102.514V28.76C101.917 29.1973 101.293 29.576 100.642 29.896C100.002 30.2053 99.3142 30.4613 98.5782 30.664C97.8529 30.8667 97.0742 31.016 96.2422 31.112C95.4209 31.208 94.5356 31.256 93.5862 31.256C91.8796 31.256 90.3009 30.9573 88.8502 30.36C87.3996 29.752 86.1409 28.92 85.0742 27.864C84.0182 26.7973 83.1862 25.5387 82.5782 24.088C81.9809 22.6267 81.6822 21.0427 81.6822 19.336C81.6822 17.5973 81.9702 16.0027 82.5462 14.552C83.1222 13.0907 83.9436 11.832 85.0102 10.776C86.0876 9.72 87.3836 8.89867 88.8982 8.312C90.4236 7.72533 92.1249 7.432 94.0022 7.432C94.9729 7.432 95.8849 7.512 96.7382 7.672C97.5916 7.832 98.3756 8.05067 99.0902 8.328C99.8156 8.60533 100.477 8.936 101.074 9.32C101.672 9.704 102.205 10.12 102.674 10.568L101.106 12.952C100.957 13.176 100.776 13.352 100.562 13.48C100.36 13.608 100.136 13.672 99.8902 13.672C99.5702 13.672 99.2396 13.5653 98.8982 13.352C98.4716 13.096 98.0662 12.8773 97.6822 12.696C97.3089 12.504 96.9249 12.3493 96.5302 12.232C96.1356 12.1147 95.7196 12.0293 95.2822 11.976C94.8449 11.9227 94.3542 11.896 93.8102 11.896C92.7969 11.896 91.8849 12.0773 91.0742 12.44C90.2636 12.792 89.5702 13.2933 88.9942 13.944C88.4289 14.5947 87.9916 15.3787 87.6822 16.296C87.3729 17.2027 87.2182 18.216 87.2182 19.336C87.2182 20.5733 87.3889 21.672 87.7302 22.632C88.0716 23.592 88.5409 24.4027 89.1382 25.064C89.7462 25.7253 90.4609 26.232 91.2822 26.584C92.1142 26.9253 93.0209 27.096 94.0022 27.096Z" fill="#57A773"></path><path d="M120 32.3332C127.364 32.3332 133.333 26.3636 133.333 18.9998C133.333 11.636 127.364 5.6665 120 5.6665C112.636 5.6665 106.667 11.636 106.667 18.9998C106.667 26.3636 112.636 32.3332 120 32.3332Z" fill="#EC9F56"></path><path d="M114.667 21.6665C114.667 21.6665 116.667 24.3332 120 24.3332C123.333 24.3332 125.333 21.6665 125.333 21.6665" stroke="white" stroke-width="2" stroke-linecap="round" stroke-linejoin="round"></path><path d="M116 15H116.011" stroke="white" stroke-width="2" stroke-linecap="round" stroke-linejoin="round"></path><path d="M124 15H124.011" stroke="white" stroke-width="2" stroke-linecap="round" stroke-linejoin="round"></path></svg> 